<svg width="643" height="133" viewBox="0 0 643 133" fill="none" xmlns="http://www.w3.org/2000/svg">
<path d="M143.739 27.192H180.987V30.84H143.739V27.192ZM179.595 27.192H183.339C183.339 27.192 183.291 28.536 183.243 29.112C182.139 48.984 181.131 56.136 179.019 58.536C177.867 59.928 176.715 60.312 174.891 60.456C173.211 60.648 170.139 60.552 167.163 60.36C167.115 59.304 166.635 57.72 165.963 56.664C169.227 56.952 172.299 57 173.499 57C174.555 57 175.131 56.856 175.755 56.28C177.579 54.504 178.635 47.016 179.595 27.96V27.192ZM159.435 16.776H163.227V25.128C163.227 36.072 161.883 50.904 145.083 61.032C144.555 60.168 143.211 58.824 142.347 58.2C158.283 48.696 159.435 35.064 159.435 25.128V16.776ZM204.315 39.672H207.915C207.915 39.672 207.867 40.824 207.819 41.304C206.955 53.016 206.043 57.624 204.459 59.304C203.451 60.312 202.539 60.648 200.955 60.792C199.563 60.888 196.875 60.84 194.139 60.696C194.091 59.64 193.659 58.152 193.035 57.144C195.819 57.432 198.459 57.48 199.515 57.48C200.427 57.48 200.907 57.384 201.435 56.904C202.635 55.752 203.499 51.384 204.315 40.248V39.672ZM192.555 29.736H196.203C195.531 34.728 194.523 41.112 193.707 45L190.107 44.424C190.971 40.584 191.979 34.44 192.555 29.736ZM218.283 18.264L222.363 18.888C220.539 31.272 217.227 47.736 214.347 57.768L211.083 57.096C213.867 46.968 216.891 30.264 218.283 18.264ZM207.531 55.704C213.387 55.176 222.555 54.216 231.291 53.304L231.339 56.664C223.035 57.72 214.203 58.728 208.059 59.448L207.531 55.704ZM223.755 39.24L226.971 38.28C230.475 45.144 233.403 54.12 234.315 60.12L230.763 61.08C229.947 55.224 227.067 46.104 223.755 39.24ZM192.699 39.672H205.755V42.936H192.267L192.699 39.672ZM194.043 29.736H204.363V22.056H191.067V18.696H207.867V33.144H194.043V29.736ZM245.979 20.664H249.483V60.744H245.979V20.664ZM237.867 30.216H256.587V33.624H237.867V30.216ZM246.171 31.512L248.427 32.472C246.507 39.24 242.667 47.64 238.971 52.104C238.635 51.096 237.771 49.608 237.147 48.792C240.603 44.952 244.443 37.464 246.171 31.512ZM253.659 17.352L255.867 20.28C251.451 22.008 244.827 23.304 239.355 24.072C239.163 23.256 238.683 22.056 238.299 21.24C243.723 20.376 250.011 18.984 253.659 17.352ZM249.291 34.248C250.539 35.544 255.147 41.352 256.203 42.792L253.947 45.624C252.795 43.32 249.051 37.608 247.611 35.736L249.291 34.248ZM272.379 16.68H275.931V60.792H272.379V16.68ZM256.011 47.928L281.547 43.8L282.123 47.16L256.539 51.336L256.011 47.928ZM259.899 22.152L262.203 20.04C265.083 21.864 268.491 24.6 270.123 26.616L267.627 28.968C266.091 26.952 262.731 24.072 259.899 22.152ZM257.979 34.632L260.235 32.52C263.355 34.392 267.147 37.272 268.923 39.336L266.523 41.736C264.747 39.624 261.099 36.6 257.979 34.632ZM301.899 24.264H328.347V27.624H301.899V24.264ZM302.907 34.824H324.075V38.136H302.907V34.824ZM313.227 16.68H316.779V36.696H313.227V16.68ZM307.563 37.272C311.163 47.352 318.891 54.84 330.123 57.816C329.307 58.536 328.299 59.976 327.771 60.888C316.251 57.48 308.475 49.512 304.299 38.232L307.563 37.272ZM323.787 34.824H324.459L325.131 34.68L327.387 35.688C323.307 49.464 312.843 57.288 301.083 60.84C300.747 59.88 299.835 58.344 299.163 57.576C310.155 54.744 320.283 47.304 323.787 35.448V34.824ZM285.531 42.12C289.563 41.112 295.515 39.48 301.227 37.848L301.659 41.112C296.427 42.696 290.859 44.328 286.587 45.576L285.531 42.12ZM286.155 26.376H301.227V29.784H286.155V26.376ZM292.347 16.728H295.899V56.52C295.899 58.536 295.419 59.544 294.123 60.072C292.875 60.648 290.859 60.744 287.547 60.744C287.451 59.832 286.923 58.392 286.443 57.432C288.699 57.48 290.811 57.48 291.435 57.432C292.059 57.432 292.347 57.192 292.347 56.52V16.728ZM357.147 18.36H369.387V21.72H357.147V18.36ZM352.731 37.464H372.699V40.824H352.731V37.464ZM355.707 18.36H359.163V24.12C359.163 28.296 358.155 33.288 353.067 36.648C352.539 35.976 351.147 34.728 350.427 34.248C355.035 31.32 355.707 27.384 355.707 24.024V18.36ZM367.467 18.36H370.923V30.312C370.923 31.368 371.019 31.56 371.739 31.56C372.123 31.56 373.611 31.56 374.043 31.56C374.811 31.56 374.955 30.888 375.099 26.136C375.771 26.664 377.211 27.24 378.123 27.432C377.835 33.24 376.971 34.68 374.427 34.68C373.803 34.68 371.787 34.68 371.211 34.68C368.331 34.68 367.467 33.768 367.467 30.36V18.36ZM357.963 40.68C361.323 48.984 368.667 55.272 378.315 57.864C377.451 58.584 376.347 60.072 375.819 60.984C365.931 57.96 358.635 51.144 354.651 41.784L357.963 40.68ZM371.451 37.464H372.171L372.795 37.32L375.099 38.28C371.595 50.376 362.571 57.528 352.587 60.888C352.203 59.928 351.243 58.488 350.523 57.72C359.787 55.08 368.475 48.216 371.451 38.136V37.464ZM338.331 18.456H348.843V21.816H338.331V18.456ZM338.331 29.64H348.939V33H338.331V29.64ZM338.235 41.016H348.891V44.424H338.235V41.016ZM336.891 18.456H340.155V35.736C340.155 43.224 339.675 53.832 336.315 60.936C335.643 60.36 334.203 59.544 333.339 59.208C336.651 52.44 336.891 42.792 336.891 35.736V18.456ZM346.875 18.456H350.283V56.568C350.283 58.488 349.851 59.592 348.603 60.216C347.403 60.792 345.435 60.888 342.267 60.84C342.171 59.976 341.643 58.344 341.163 57.432C343.419 57.48 345.387 57.48 346.011 57.432C346.635 57.384 346.875 57.192 346.875 56.52V18.456ZM398.187 35.88H418.395V39.192H398.187V35.88ZM403.995 18.024H415.803V21.288H403.995V18.024ZM413.115 18.024H417.099C418.491 25.272 421.995 31.848 426.603 35.16C425.787 35.784 424.539 37.224 423.915 38.088C419.115 34.2 415.515 27.384 413.979 19.896H413.115V18.024ZM416.907 35.88H420.555C420.555 35.88 420.555 37.032 420.507 37.56C420.075 52.056 419.691 57.096 418.443 58.728C417.627 59.832 416.763 60.216 415.371 60.36C414.171 60.456 412.059 60.456 409.899 60.36C409.803 59.256 409.419 57.72 408.891 56.76C410.955 56.952 412.923 56.952 413.691 56.952C414.459 56.952 414.843 56.856 415.227 56.376C416.139 55.272 416.571 50.376 416.907 36.6V35.88ZM404.955 37.368H408.507C407.835 46.92 405.531 55.752 396.699 60.84C396.267 60.072 395.259 58.776 394.491 58.152C402.747 53.736 404.427 45.624 404.955 37.368ZM401.019 22.008L404.523 22.92C402.507 28.44 399.003 34.824 394.731 38.904C394.251 38.184 393.099 37.08 392.379 36.504C396.267 32.856 399.531 26.904 401.019 22.008ZM392.475 16.872L395.883 17.928C392.715 26.088 387.771 34.2 382.587 39.576C382.203 38.76 381.195 36.84 380.523 36.024C385.275 31.368 389.787 24.168 392.475 16.872ZM387.483 29.256L390.843 25.848L390.939 25.896V60.792H387.483V29.256ZM430.827 22.92H472.875V26.328H430.827V22.92ZM442.539 40.056H465.099V43.176H442.539V40.056ZM439.995 31.896H464.523V35.112H443.547V60.84H439.995V31.896ZM463.707 31.896H467.211V56.376C467.211 58.488 466.779 59.592 465.147 60.168C463.611 60.744 460.923 60.744 456.795 60.744C456.651 59.736 456.123 58.248 455.595 57.24C458.811 57.384 461.739 57.336 462.603 57.336C463.419 57.288 463.707 57.048 463.707 56.328V31.896ZM446.523 16.68L450.171 17.544C446.907 28.104 441.147 38.76 431.979 45.192C431.499 44.376 430.395 43.128 429.675 42.408C438.267 36.504 443.931 26.328 446.523 16.68ZM442.539 48.168H465.099V51.288H442.539V48.168ZM499.179 27.912H517.083V30.936H499.179V27.912ZM491.691 56.664C496.107 55.896 503.067 54.504 509.787 53.16L510.027 56.328C503.979 57.72 497.547 59.112 492.891 60.168L491.691 56.664ZM497.115 18.84H500.619V56.952H497.115V18.84ZM499.179 18.84H518.763V40.152H499.179V36.984H515.259V22.008H499.179V18.84ZM508.443 38.088C510.507 47.064 514.875 54.552 522.027 57.72C521.211 58.44 520.155 59.784 519.627 60.696C512.139 56.904 507.675 48.792 505.467 38.664L508.443 38.088ZM517.995 41.256L520.827 43.32C518.139 45.816 514.731 48.504 512.043 50.28L509.787 48.456C512.379 46.584 515.979 43.56 517.995 41.256ZM479.691 18.792H491.979V22.056H483.099V60.888H479.691V18.792ZM490.923 18.792H491.595L492.123 18.648L494.571 20.136C493.035 24.12 491.019 29.064 489.243 32.856C493.131 36.84 494.043 40.248 494.043 43.224C494.043 45.864 493.419 47.832 491.979 48.84C491.259 49.32 490.347 49.608 489.339 49.704C488.235 49.848 486.891 49.848 485.691 49.752C485.643 48.888 485.355 47.448 484.779 46.488C486.027 46.632 487.083 46.632 487.947 46.584C488.571 46.536 489.147 46.392 489.627 46.104C490.443 45.576 490.731 44.328 490.683 42.84C490.683 40.2 489.675 37.032 485.931 33.288C487.851 28.92 489.819 23.112 490.923 19.8V18.792ZM543.819 34.104L548.043 35.16C545.019 42.408 540.843 51.384 537.291 57.192L533.979 56.136C537.387 50.232 541.563 40.872 543.819 34.104ZM528.075 55.032C536.859 54.744 550.827 54.168 563.691 53.544L563.595 57C551.019 57.72 537.579 58.44 528.555 58.824L528.075 55.032ZM553.035 44.616L556.491 43.032C560.859 48.072 565.803 54.744 568.203 59.112L564.555 61.08C562.299 56.712 557.307 49.704 553.035 44.616ZM538.971 18.12L542.955 19.224C539.739 26.952 534.699 34.296 529.611 39.048C528.843 38.328 527.163 37.032 526.155 36.456C531.435 32.136 536.187 25.224 538.971 18.12ZM556.155 18.072C559.323 24.36 565.371 31.944 569.787 35.928C568.827 36.696 567.483 38.088 566.763 39C562.299 34.44 556.299 26.28 552.603 19.56L556.155 18.072ZM576.027 19.8H612.219V23.256H576.027V19.8ZM576.315 28.296H605.259V31.512H576.315V28.296ZM610.779 19.8H614.379V55.464C614.379 57.96 613.899 59.208 612.219 59.88C610.539 60.504 607.515 60.552 603.243 60.552C603.051 59.448 602.523 57.672 601.947 56.616C605.307 56.712 608.571 56.712 609.579 56.664C610.491 56.616 610.779 56.376 610.779 55.464V19.8ZM579.387 36.696H582.891V55.608H579.387V36.696ZM582.267 36.696H601.947V52.056H582.267V48.888H598.395V39.912H582.267V36.696Z" fill="white"/>
<path d="M343.35 113.74V84.6492H346.872V110.615H360.395V113.74H343.35ZM365.85 113.74V84.6492H369.372V97.6038H384.884V84.6492H388.406V113.74H384.884V100.729H369.372V113.74H365.85ZM393.868 87.7742V84.6492H415.686V87.7742H406.538V113.74H403.016V87.7742H393.868ZM421.744 113.967C421.044 113.967 420.442 113.716 419.94 113.215C419.439 112.713 419.188 112.111 419.188 111.411C419.188 110.71 419.439 110.109 419.94 109.607C420.442 109.105 421.044 108.854 421.744 108.854C422.445 108.854 423.046 109.105 423.548 109.607C424.05 110.109 424.301 110.71 424.301 111.411C424.301 111.875 424.183 112.301 423.946 112.689C423.719 113.077 423.411 113.39 423.023 113.627C422.644 113.854 422.218 113.967 421.744 113.967ZM454.18 93.7402H450.658C450.449 92.7269 450.085 91.8367 449.564 91.0697C449.053 90.3027 448.428 89.6587 447.689 89.1379C446.96 88.6076 446.15 88.2099 445.26 87.9447C444.37 87.6796 443.442 87.547 442.476 87.547C440.715 87.547 439.119 87.9921 437.689 88.8822C436.269 89.7724 435.137 91.0839 434.294 92.8169C433.461 94.5498 433.044 96.6758 433.044 99.1947C433.044 101.714 433.461 103.84 434.294 105.573C435.137 107.305 436.269 108.617 437.689 109.507C439.119 110.397 440.715 110.842 442.476 110.842C443.442 110.842 444.37 110.71 445.26 110.445C446.15 110.18 446.96 109.787 447.689 109.266C448.428 108.735 449.053 108.087 449.564 107.32C450.085 106.543 450.449 105.653 450.658 104.649H454.18C453.915 106.136 453.432 107.466 452.732 108.641C452.031 109.815 451.16 110.814 450.118 111.638C449.076 112.452 447.907 113.073 446.609 113.499C445.322 113.925 443.944 114.138 442.476 114.138C439.995 114.138 437.788 113.532 435.857 112.32C433.925 111.108 432.405 109.384 431.297 107.149C430.189 104.914 429.635 102.263 429.635 99.1947C429.635 96.1265 430.189 93.475 431.297 91.2402C432.405 89.0053 433.925 87.2818 435.857 86.0697C437.788 84.8576 439.995 84.2515 442.476 84.2515C443.944 84.2515 445.322 84.4646 446.609 84.8907C447.907 85.3169 449.076 85.9419 450.118 86.7657C451.16 87.5801 452.031 88.5744 452.732 89.7487C453.432 90.9135 453.915 92.2439 454.18 93.7402ZM484.418 99.1947C484.418 102.263 483.864 104.914 482.756 107.149C481.649 109.384 480.129 111.108 478.197 112.32C476.265 113.532 474.059 114.138 471.577 114.138C469.096 114.138 466.89 113.532 464.958 112.32C463.026 111.108 461.506 109.384 460.399 107.149C459.291 104.914 458.737 102.263 458.737 99.1947C458.737 96.1265 459.291 93.475 460.399 91.2402C461.506 89.0053 463.026 87.2818 464.958 86.0697C466.89 84.8576 469.096 84.2515 471.577 84.2515C474.059 84.2515 476.265 84.8576 478.197 86.0697C480.129 87.2818 481.649 89.0053 482.756 91.2402C483.864 93.475 484.418 96.1265 484.418 99.1947ZM481.009 99.1947C481.009 96.6758 480.588 94.5498 479.745 92.8169C478.912 91.0839 477.78 89.7724 476.35 88.8822C474.93 87.9921 473.339 87.547 471.577 87.547C469.816 87.547 468.22 87.9921 466.791 88.8822C465.37 89.7724 464.238 91.0839 463.396 92.8169C462.562 94.5498 462.146 96.6758 462.146 99.1947C462.146 101.714 462.562 103.84 463.396 105.573C464.238 107.305 465.37 108.617 466.791 109.507C468.22 110.397 469.816 110.842 471.577 110.842C473.339 110.842 474.93 110.397 476.35 109.507C477.78 108.617 478.912 107.305 479.745 105.573C480.588 103.84 481.009 101.714 481.009 99.1947ZM490.342 84.6492H494.546L504.433 108.797H504.774L514.66 84.6492H518.864V113.74H515.569V91.6379H515.285L506.194 113.74H503.012L493.921 91.6379H493.637V113.74H490.342V84.6492ZM525.928 113.74V84.6492H535.757C538.039 84.6492 539.905 85.0612 541.354 85.885C542.812 86.6994 543.892 87.8027 544.592 89.1947C545.293 90.5867 545.644 92.1398 545.644 93.8538C545.644 95.5678 545.293 97.1256 544.592 98.5271C543.901 99.9286 542.831 101.046 541.382 101.879C539.933 102.703 538.077 103.115 535.814 103.115H528.769V99.9902H535.7C537.263 99.9902 538.518 99.7203 539.465 99.1805C540.412 98.6407 541.098 97.9116 541.524 96.993C541.96 96.065 542.178 95.0186 542.178 93.8538C542.178 92.689 541.96 91.6474 541.524 90.7288C541.098 89.8102 540.407 89.0905 539.45 88.5697C538.494 88.0394 537.225 87.7742 535.644 87.7742H529.45V113.74H525.928ZM549.543 113.74H545.85L556.531 84.6492H560.168L570.85 113.74H567.156L558.463 89.2515H558.236L549.543 113.74ZM550.906 102.377H565.793V105.502H550.906V102.377ZM598.449 84.6492V113.74H595.04L579.188 90.8992H578.903V113.74H575.381V84.6492H578.79L594.699 107.547H594.983V84.6492H598.449ZM602.998 84.6492H607.032L615.1 98.2288H615.441L623.509 84.6492H627.543L617.032 101.752V113.74H613.509V101.752L602.998 84.6492Z" fill="white"/>
<ellipse cx="38.6956" cy="93.7333" rx="38.1759" ry="39.2667" fill="#009819"/>
<ellipse cx="68.2512" cy="39.2667" rx="38.1759" ry="39.2667" fill="#C40808"/>
<ellipse cx="95.3438" cy="93.7333" rx="38.1759" ry="39.2667" fill="#031A99"/>
</svg>
